<svg width="1304" height="245" viewBox="0 0 1304 245" fill="none" xmlns="http://www.w3.org/2000/svg">
<path fill-rule="evenodd" clip-rule="evenodd" d="M1042 39.1523H1099V79.1523H1042V39.1523ZM1042 89.1523H1099V129.152H1042V89.1523ZM1099 139.152H1042V179.152H1099V139.152ZM1042 189.152H1099V229.152H1042V189.152ZM1171 39.1523H1114V79.1523H1171V39.1523ZM1114 89.1523H1171V129.152H1114V89.1523ZM1171 139.152H1114V179.152H1171V139.152ZM1114 189.152H1171L1156 203.652L1114 229.152V189.152ZM1243 39.1523H1186V79.1523H1243V39.1523ZM1186 89.1523H1243V129.152H1186V89.1523ZM1243 139.152H1186V179.152L1222 158.652L1243 139.152Z" fill="url(#paint0_radial_33_40)"/>
<path d="M1016 225.152C978 209.952 991.834 164.319 1004.5 144.152C962.501 205.352 993.334 232.652 1014 238.652C1067.2 261.852 1159.5 212.319 1199 184.652C1326.6 90.6523 1311.17 29.4855 1287.5 10.652C1264.3 -11.748 1194.5 6.31883 1162.5 18.1522C1227.7 -4.64777 1263 8.65223 1272.5 18.1522C1303.5 56.1522 1267.5 113.652 1182 176.652C1116.68 224.78 1045.33 232.819 1016 225.152Z" fill="#454545"/>
<path d="M38.0859 81.9194C40.4053 81.9194 42.5659 82.0415 44.5679 82.2856C46.5698 82.5054 48.4863 82.835 50.3174 83.2744C52.1484 83.6895 53.9307 84.2021 55.6641 84.8125C57.3975 85.3984 59.1431 86.0576 60.9009 86.79V92.3564C59.5093 91.4775 58.02 90.6475 56.4331 89.8662C54.8706 89.085 53.1738 88.4014 51.3428 87.8154C49.5361 87.2295 47.583 86.7656 45.4834 86.4238C43.4082 86.082 41.1743 85.9111 38.7817 85.9111C33.8989 85.9111 29.6387 86.4238 26.001 87.4492C22.3633 88.4746 19.3359 89.9395 16.9189 91.8438C14.502 93.748 12.6831 96.0674 11.4624 98.8018C10.2661 101.536 9.66797 104.612 9.66797 108.03C9.66797 111.229 10.2539 114.183 11.4258 116.893C12.6221 119.578 14.4165 121.897 16.8091 123.851C19.2261 125.804 22.2412 127.33 25.8545 128.428C29.4678 129.527 33.7036 130.076 38.562 130.076C40.4663 130.076 42.3462 130.003 44.2017 129.856C46.0815 129.71 47.8516 129.527 49.5117 129.307C51.1719 129.063 52.6855 128.807 54.0527 128.538C55.4199 128.245 56.5796 127.952 57.5317 127.659V112.388H37.0605V108.104H62.1094V130.223C60.3027 130.857 58.4717 131.419 56.6162 131.907C54.7852 132.396 52.8809 132.811 50.9033 133.152C48.9502 133.47 46.9116 133.714 44.7876 133.885C42.688 134.056 40.4785 134.141 38.1592 134.141C33.4229 134.141 29.0283 133.616 24.9756 132.566C20.9229 131.492 17.4072 129.881 14.4287 127.732C11.4746 125.56 9.15527 122.837 7.4707 119.566C5.78613 116.294 4.94385 112.449 4.94385 108.03C4.94385 105.076 5.33447 102.391 6.11572 99.9736C6.89697 97.5322 7.99561 95.3472 9.41162 93.4185C10.8521 91.4653 12.5732 89.7686 14.5752 88.3281C16.6016 86.8877 18.8354 85.7036 21.2769 84.7759C23.7427 83.8237 26.3916 83.1157 29.2236 82.6519C32.0557 82.1636 35.0098 81.9194 38.0859 81.9194ZM138.984 108.03C138.984 112.547 138.167 116.453 136.531 119.749C134.895 123.021 132.649 125.73 129.792 127.879C126.936 130.003 123.567 131.578 119.685 132.603C115.803 133.628 111.616 134.141 107.124 134.141C102.607 134.141 98.396 133.628 94.4897 132.603C90.5835 131.578 87.1899 130.003 84.3091 127.879C81.4282 125.73 79.1699 123.021 77.5342 119.749C75.8984 116.453 75.0806 112.547 75.0806 108.03C75.0806 105.027 75.459 102.305 76.2158 99.8638C76.9727 97.3979 78.0347 95.2007 79.4019 93.272C80.769 91.3188 82.417 89.6343 84.3457 88.2183C86.2988 86.8022 88.4595 85.6304 90.8276 84.7026C93.2202 83.7505 95.7837 83.0547 98.5181 82.6152C101.252 82.1514 104.121 81.9194 107.124 81.9194C111.616 81.9194 115.803 82.4321 119.685 83.4575C123.567 84.4829 126.936 86.0698 129.792 88.2183C132.649 90.3423 134.895 93.0522 136.531 96.3481C138.167 99.6196 138.984 103.514 138.984 108.03ZM134.26 108.03C134.26 104.466 133.674 101.316 132.502 98.582C131.355 95.8477 129.646 93.5527 127.375 91.6973C125.105 89.8174 122.273 88.4014 118.879 87.4492C115.51 86.4727 111.592 85.9844 107.124 85.9844C102.656 85.9844 98.7134 86.4727 95.2954 87.4492C91.9019 88.4258 89.0576 89.854 86.7627 91.7339C84.4678 93.5894 82.7344 95.8965 81.5625 98.6553C80.3906 101.39 79.8047 104.515 79.8047 108.03C79.8047 111.595 80.3906 114.744 81.5625 117.479C82.7344 120.213 84.4678 122.52 86.7627 124.4C89.0576 126.255 91.9019 127.671 95.2954 128.648C98.7134 129.6 102.656 130.076 107.124 130.076C111.592 130.076 115.51 129.6 118.879 128.648C122.273 127.671 125.105 126.255 127.375 124.4C129.646 122.52 131.355 120.213 132.502 117.479C133.674 114.744 134.26 111.595 134.26 108.03ZM235.972 129.161C234.214 129.893 232.468 130.564 230.735 131.175C229.026 131.785 227.244 132.31 225.388 132.75C223.533 133.189 221.58 133.531 219.529 133.775C217.478 134.019 215.244 134.141 212.827 134.141C209.849 134.141 206.98 133.897 204.221 133.409C201.487 132.92 198.936 132.188 196.567 131.211C194.199 130.235 192.051 129.026 190.122 127.586C188.193 126.121 186.533 124.424 185.142 122.496C183.774 120.567 182.712 118.394 181.956 115.977C181.223 113.56 180.857 110.911 180.857 108.03C180.857 105.149 181.223 102.5 181.956 100.083C182.712 97.6665 183.774 95.4937 185.142 93.5649C186.533 91.6362 188.193 89.9517 190.122 88.5112C192.051 87.0464 194.199 85.8257 196.567 84.8491C198.936 83.8726 201.487 83.1401 204.221 82.6519C206.956 82.1636 209.824 81.9194 212.827 81.9194C215.244 81.9194 217.478 82.0415 219.529 82.2856C221.58 82.5298 223.533 82.8716 225.388 83.311C227.244 83.7505 229.026 84.2754 230.735 84.8857C232.468 85.4717 234.214 86.1309 235.972 86.8633V92.3564C234.58 91.4775 233.091 90.6475 231.504 89.8662C229.917 89.085 228.196 88.4014 226.34 87.8154C224.509 87.2295 222.544 86.7656 220.444 86.4238C218.345 86.082 216.099 85.9111 213.706 85.9111C208.872 85.9111 204.685 86.436 201.145 87.4858C197.605 88.5356 194.675 90.0249 192.356 91.9536C190.061 93.8579 188.352 96.1772 187.229 98.9116C186.13 101.622 185.581 104.661 185.581 108.03C185.581 111.399 186.13 114.439 187.229 117.149C188.352 119.859 190.061 122.178 192.356 124.107C194.675 126.011 197.605 127.488 201.145 128.538C204.685 129.563 208.872 130.076 213.706 130.076C216.099 130.076 218.357 129.905 220.481 129.563C222.629 129.222 224.631 128.758 226.487 128.172C228.367 127.586 230.088 126.915 231.65 126.158C233.237 125.376 234.678 124.559 235.972 123.704V129.161ZM301.091 133.152V108.763H256.011V133.152H251.433V82.835H256.011V104.515H301.091V82.835H305.669V133.152H301.091ZM329.077 115.757C329.077 118.028 329.26 119.981 329.626 121.617C329.993 123.252 330.762 124.595 331.934 125.645C333.105 126.695 334.79 127.476 336.987 127.989C339.209 128.477 342.151 128.721 345.813 128.721H368.555V133.152H344.897C340.869 133.152 337.537 132.835 334.9 132.2C332.288 131.541 330.2 130.54 328.638 129.197C327.1 127.83 326.025 126.109 325.415 124.034C324.805 121.958 324.5 119.493 324.5 116.636V82.835H329.077V115.757ZM379.622 133.152V82.835H384.199V133.152H379.622ZM453.75 130.516C451.699 131.15 449.795 131.7 448.037 132.164C446.279 132.603 444.546 132.957 442.837 133.226C441.128 133.519 439.382 133.726 437.6 133.848C435.842 133.995 433.901 134.068 431.777 134.068C426.846 134.068 422.39 133.47 418.411 132.273C414.431 131.077 411.038 129.368 408.23 127.146C405.447 124.9 403.298 122.19 401.785 119.017C400.271 115.843 399.514 112.278 399.514 108.323C399.514 104.49 400.234 100.975 401.675 97.7764C403.14 94.5781 405.178 91.8315 407.791 89.5366C410.403 87.2417 413.528 85.4595 417.166 84.1899C420.803 82.9204 424.819 82.2856 429.214 82.2856C433.779 82.2856 437.844 82.896 441.409 84.1167C444.973 85.3374 447.976 87.083 450.417 89.3535C452.859 91.624 454.714 94.3828 455.984 97.6299C457.253 100.853 457.888 104.49 457.888 108.543V109.678H404.238C404.507 112.803 405.288 115.623 406.582 118.138C407.876 120.652 409.707 122.789 412.075 124.546C414.468 126.304 417.397 127.659 420.864 128.611C424.355 129.539 428.42 130.003 433.059 130.003C435.037 130.003 437.039 129.869 439.065 129.6C441.091 129.332 443.032 128.978 444.888 128.538C446.743 128.074 448.44 127.562 449.978 127C451.516 126.414 452.773 125.816 453.75 125.206V130.516ZM453.384 105.687C453.213 103.123 452.639 100.682 451.663 98.3623C450.686 96.0186 449.221 93.9556 447.268 92.1733C445.339 90.3911 442.874 88.9751 439.871 87.9253C436.892 86.8755 433.315 86.3506 429.141 86.3506C425.21 86.3506 421.768 86.8755 418.813 87.9253C415.859 88.9751 413.357 90.3911 411.306 92.1733C409.255 93.9312 407.644 95.9819 406.472 98.3257C405.3 100.645 404.556 103.099 404.238 105.687H453.384ZM521.873 133.152V99.937C521.873 97.1538 521.494 94.8711 520.737 93.0889C520.005 91.2822 518.943 89.854 517.551 88.8042C516.184 87.7544 514.512 87.022 512.534 86.6069C510.557 86.1919 508.335 85.9844 505.869 85.9844C503.013 85.9844 500.205 86.3384 497.446 87.0464C494.712 87.73 492.124 88.6089 489.683 89.6831C487.241 90.7329 484.995 91.9048 482.944 93.1987C480.894 94.4927 479.16 95.7378 477.744 96.9341V133.152H473.167V82.835H477.744V91.6606C479.453 90.5864 481.333 89.4634 483.384 88.2915C485.459 87.0952 487.681 86.0088 490.049 85.0322C492.441 84.0312 494.993 83.2134 497.703 82.5786C500.413 81.9438 503.269 81.6265 506.272 81.6265C509.666 81.6265 512.62 82.0415 515.134 82.8716C517.673 83.6772 519.773 84.8369 521.433 86.3506C523.118 87.8398 524.375 89.6587 525.205 91.8071C526.035 93.9312 526.45 96.3115 526.45 98.9482V133.152H521.873ZM565.459 87.0098V133.152H560.918V87.0098H538.03V82.835H588.347V87.0098H565.459ZM681.782 129.161C680.024 129.893 678.279 130.564 676.545 131.175C674.836 131.785 673.054 132.31 671.199 132.75C669.343 133.189 667.39 133.531 665.339 133.775C663.289 134.019 661.055 134.141 658.638 134.141C655.659 134.141 652.791 133.897 650.032 133.409C647.297 132.92 644.746 132.188 642.378 131.211C640.01 130.235 637.861 129.026 635.933 127.586C634.004 126.121 632.344 124.424 630.952 122.496C629.585 120.567 628.523 118.394 627.766 115.977C627.034 113.56 626.667 110.911 626.667 108.03C626.667 105.149 627.034 102.5 627.766 100.083C628.523 97.6665 629.585 95.4937 630.952 93.5649C632.344 91.6362 634.004 89.9517 635.933 88.5112C637.861 87.0464 640.01 85.8257 642.378 84.8491C644.746 83.8726 647.297 83.1401 650.032 82.6519C652.766 82.1636 655.635 81.9194 658.638 81.9194C661.055 81.9194 663.289 82.0415 665.339 82.2856C667.39 82.5298 669.343 82.8716 671.199 83.311C673.054 83.7505 674.836 84.2754 676.545 84.8857C678.279 85.4717 680.024 86.1309 681.782 86.8633V92.3564C680.391 91.4775 678.901 90.6475 677.314 89.8662C675.728 89.085 674.006 88.4014 672.151 87.8154C670.32 87.2295 668.354 86.7656 666.255 86.4238C664.155 86.082 661.909 85.9111 659.517 85.9111C654.683 85.9111 650.496 86.436 646.956 87.4858C643.416 88.5356 640.486 90.0249 638.167 91.9536C635.872 93.8579 634.163 96.1772 633.04 98.9116C631.941 101.622 631.392 104.661 631.392 108.03C631.392 111.399 631.941 114.439 633.04 117.149C634.163 119.859 635.872 122.178 638.167 124.107C640.486 126.011 643.416 127.488 646.956 128.538C650.496 129.563 654.683 130.076 659.517 130.076C661.909 130.076 664.167 129.905 666.292 129.563C668.44 129.222 670.442 128.758 672.297 128.172C674.177 127.586 675.898 126.915 677.461 126.158C679.048 125.376 680.488 124.559 681.782 123.704V129.161ZM746.902 133.152V108.763H701.821V133.152H697.244V82.835H701.821V104.515H746.902V82.835H751.479V133.152H746.902ZM815.867 133.152V127.586C814.109 128.538 812.107 129.417 809.861 130.223C807.639 131.028 805.283 131.724 802.793 132.31C800.327 132.896 797.788 133.348 795.176 133.665C792.563 133.982 790 134.141 787.485 134.141C784.214 134.141 781.272 133.848 778.66 133.262C776.072 132.676 773.875 131.81 772.068 130.662C770.261 129.49 768.87 128.05 767.893 126.341C766.917 124.607 766.428 122.605 766.428 120.335C766.428 118.089 766.99 116.111 768.113 114.402C769.26 112.669 770.884 111.167 772.983 109.898C775.083 108.604 777.61 107.518 780.564 106.639C783.542 105.735 786.863 104.979 790.525 104.368C794.187 103.733 798.142 103.221 802.39 102.83C806.663 102.415 811.155 102.073 815.867 101.805V97.9595C815.867 96.397 815.574 95.0176 814.988 93.8213C814.402 92.625 813.584 91.5874 812.534 90.7085C811.484 89.8052 810.251 89.0605 808.835 88.4746C807.419 87.8643 805.881 87.376 804.221 87.0098C802.585 86.6436 800.852 86.3872 799.021 86.2407C797.214 86.0698 795.396 85.9844 793.564 85.9844C791.099 85.9844 788.853 86.1064 786.826 86.3506C784.8 86.5947 782.908 86.9365 781.15 87.376C779.392 87.791 777.708 88.2793 776.096 88.8408C774.485 89.4023 772.861 90.0005 771.226 90.6353V85.2886C774.619 84.3853 778.232 83.604 782.065 82.9448C785.923 82.2612 790.012 81.9194 794.333 81.9194C797.996 81.9194 801.414 82.2368 804.587 82.8716C807.761 83.4819 810.52 84.4707 812.864 85.8379C815.208 87.2051 817.051 88.9751 818.394 91.1479C819.736 93.2964 820.408 95.9209 820.408 99.0215V133.152H815.867ZM815.867 105.87C807.883 106.309 801.06 106.932 795.396 107.737C789.756 108.543 785.142 109.532 781.553 110.704C777.964 111.875 775.327 113.243 773.643 114.805C771.982 116.368 771.152 118.138 771.152 120.115C771.152 121.727 771.555 123.155 772.361 124.4C773.191 125.645 774.375 126.695 775.913 127.549C777.451 128.379 779.319 129.014 781.516 129.454C783.713 129.869 786.179 130.076 788.914 130.076C790.525 130.076 792.185 129.991 793.894 129.82C795.627 129.625 797.349 129.368 799.058 129.051C800.767 128.709 802.451 128.318 804.111 127.879C805.771 127.415 807.334 126.915 808.799 126.377C810.264 125.84 811.594 125.267 812.791 124.656C814.011 124.046 815.037 123.423 815.867 122.789V105.87ZM876.116 86.7168C875.408 86.4971 874.419 86.2651 873.149 86.021C871.904 85.7524 870.293 85.6182 868.315 85.6182C865.581 85.6182 863.005 85.96 860.588 86.6436C858.196 87.3027 855.962 88.2061 853.887 89.3535C851.836 90.501 849.932 91.8438 848.174 93.3818C846.416 94.8955 844.829 96.5068 843.413 98.2158V133.152H838.835V82.835H843.413V93.0889C845.049 91.4043 846.819 89.854 848.723 88.438C850.652 87.022 852.678 85.8135 854.802 84.8125C856.926 83.7871 859.148 82.9937 861.467 82.4321C863.811 81.8462 866.228 81.5532 868.718 81.5532C869.573 81.5532 870.342 81.5776 871.025 81.6265C871.709 81.6509 872.332 81.6997 872.893 81.7729C873.479 81.8218 874.028 81.8828 874.541 81.9561C875.054 82.0293 875.579 82.1147 876.116 82.2124V86.7168ZM906.885 87.0098V133.152H902.344V87.0098H879.456V82.835H929.773V87.0098H906.885ZM982.185 90.269C981.233 89.8052 980.134 89.3169 978.889 88.8042C977.644 88.2671 976.216 87.791 974.604 87.376C973.018 86.9609 971.223 86.6191 969.221 86.3506C967.219 86.0576 964.998 85.9111 962.556 85.9111C959.602 85.9111 956.965 86.082 954.646 86.4238C952.351 86.7656 950.398 87.3027 948.787 88.0352C947.2 88.7432 945.979 89.6465 945.125 90.7451C944.294 91.8438 943.879 93.1499 943.879 94.6636C943.879 95.9331 944.27 97.0439 945.051 97.9961C945.857 98.9482 946.931 99.7905 948.274 100.523C949.641 101.255 951.228 101.927 953.035 102.537C954.866 103.123 956.794 103.685 958.821 104.222C960.872 104.734 962.971 105.259 965.12 105.796C967.292 106.333 969.392 106.919 971.418 107.554C973.469 108.165 975.398 108.86 977.205 109.642C979.036 110.398 980.623 111.29 981.965 112.315C983.333 113.34 984.407 114.512 985.188 115.831C985.994 117.149 986.396 118.675 986.396 120.408C986.396 122.288 986.042 123.936 985.334 125.352C984.626 126.744 983.662 127.952 982.441 128.978C981.245 129.979 979.829 130.821 978.193 131.504C976.582 132.164 974.849 132.688 972.993 133.079C971.162 133.47 969.258 133.738 967.28 133.885C965.327 134.056 963.398 134.141 961.494 134.141C957.124 134.141 953.157 133.824 949.592 133.189C946.052 132.554 942.671 131.688 939.448 130.589V124.986C942.769 126.963 946.272 128.318 949.958 129.051C953.669 129.783 957.563 130.149 961.641 130.149C964.521 130.149 967.183 129.979 969.624 129.637C972.065 129.295 974.177 128.758 975.959 128.025C977.742 127.269 979.121 126.292 980.098 125.096C981.099 123.899 981.599 122.435 981.599 120.701C981.599 119.31 981.196 118.089 980.391 117.039C979.609 115.989 978.535 115.074 977.168 114.292C975.825 113.487 974.238 112.779 972.407 112.168C970.601 111.558 968.684 110.997 966.658 110.484C964.631 109.947 962.532 109.434 960.359 108.946C958.21 108.433 956.123 107.884 954.097 107.298C952.07 106.712 950.142 106.053 948.311 105.32C946.504 104.588 944.917 103.733 943.55 102.757C942.207 101.756 941.133 100.608 940.327 99.3145C939.546 98.0205 939.155 96.519 939.155 94.8101C939.155 93.1255 939.473 91.6362 940.107 90.3423C940.742 89.0239 941.609 87.8887 942.708 86.9365C943.831 85.9844 945.137 85.1909 946.626 84.5562C948.115 83.897 949.702 83.3843 951.387 83.0181C953.096 82.6274 954.866 82.3467 956.697 82.1758C958.528 82.0049 960.334 81.9194 962.117 81.9194C964.07 81.9194 965.913 82.0049 967.646 82.1758C969.404 82.3467 971.089 82.5786 972.7 82.8716C974.336 83.1401 975.923 83.4575 977.461 83.8237C979.023 84.1899 980.598 84.5806 982.185 84.9956V90.269Z" fill="black"/>
<defs>
<radialGradient id="paint0_radial_33_40" cx="0" cy="0" r="1" gradientUnits="userSpaceOnUse" gradientTransform="translate(1142.5 134.152) rotate(90) scale(95 100.5)">
<stop stop-color="#0890E6"/>
<stop offset="1" stop-color="#15599D"/>
</radialGradient>
</defs>
</svg>
