<svg width="1143" height="245" viewBox="0 0 1143 245" fill="none" xmlns="http://www.w3.org/2000/svg">
<path fill-rule="evenodd" clip-rule="evenodd" d="M881.416 39.1523H938.416V79.1523H881.416V39.1523ZM881.416 89.1523H938.416V129.152H881.416V89.1523ZM938.416 139.152H881.416V179.152H938.416V139.152ZM881.416 189.152H938.416V229.152H881.416V189.152ZM1010.42 39.1523H953.416V79.1523H1010.42V39.1523ZM953.416 89.1523H1010.42V129.152H953.416V89.1523ZM1010.42 139.152H953.416V179.152H1010.42V139.152ZM953.416 189.152H1010.42L995.416 203.652L953.416 229.152V189.152ZM1082.42 39.1523H1025.42V79.1523H1082.42V39.1523ZM1025.42 89.1523H1082.42V129.152H1025.42V89.1523ZM1082.42 139.152H1025.42V179.152L1061.42 158.652L1082.42 139.152Z" fill="url(#paint0_radial_33_43)"/>
<path d="M855.416 225.152C817.416 209.952 831.25 164.319 843.916 144.152C801.917 205.352 832.75 232.652 853.416 238.652C906.617 261.852 998.916 212.319 1038.42 184.652C1166.02 90.6523 1150.58 29.4855 1126.92 10.652C1103.72 -11.748 1033.92 6.31883 1001.92 18.1522C1067.12 -4.64777 1102.42 8.65223 1111.92 18.1522C1142.92 56.1522 1106.92 113.652 1021.42 176.652C956.1 224.78 884.75 232.819 855.416 225.152Z" fill="#D0804B"/>
<path d="M38.0859 84.7671C40.4053 84.7671 42.5659 84.8892 44.5679 85.1333C46.5698 85.353 48.4863 85.6826 50.3174 86.1221C52.1484 86.5371 53.9307 87.0498 55.6641 87.6602C57.3975 88.2461 59.1431 88.9053 60.9009 89.6377V95.2041C59.5093 94.3252 58.02 93.4951 56.4331 92.7139C54.8706 91.9326 53.1738 91.249 51.3428 90.6631C49.5361 90.0771 47.583 89.6133 45.4834 89.2715C43.4082 88.9297 41.1743 88.7588 38.7817 88.7588C33.8989 88.7588 29.6387 89.2715 26.001 90.2969C22.3633 91.3223 19.3359 92.7871 16.9189 94.6914C14.502 96.5957 12.6831 98.915 11.4624 101.649C10.2661 104.384 9.66797 107.46 9.66797 110.878C9.66797 114.076 10.2539 117.03 11.4258 119.74C12.6221 122.426 14.4165 124.745 16.8091 126.698C19.2261 128.651 22.2412 130.177 25.8545 131.276C29.4678 132.375 33.7036 132.924 38.562 132.924C40.4663 132.924 42.3462 132.851 44.2017 132.704C46.0815 132.558 47.8516 132.375 49.5117 132.155C51.1719 131.911 52.6855 131.654 54.0527 131.386C55.4199 131.093 56.5796 130.8 57.5317 130.507V115.236H37.0605V110.951H62.1094V133.07C60.3027 133.705 58.4717 134.267 56.6162 134.755C54.7852 135.243 52.8809 135.658 50.9033 136C48.9502 136.317 46.9116 136.562 44.7876 136.732C42.688 136.903 40.4785 136.989 38.1592 136.989C33.4229 136.989 29.0283 136.464 24.9756 135.414C20.9229 134.34 17.4072 132.729 14.4287 130.58C11.4746 128.407 9.15527 125.685 7.4707 122.414C5.78613 119.142 4.94385 115.297 4.94385 110.878C4.94385 107.924 5.33447 105.238 6.11572 102.821C6.89697 100.38 7.99561 98.1948 9.41162 96.2661C10.8521 94.313 12.5732 92.6162 14.5752 91.1758C16.6016 89.7354 18.8354 88.5513 21.2769 87.6235C23.7427 86.6714 26.3916 85.9634 29.2236 85.4995C32.0557 85.0112 35.0098 84.7671 38.0859 84.7671ZM140.484 110.878C140.484 115.395 139.667 119.301 138.031 122.597C136.395 125.868 134.149 128.578 131.292 130.727C128.436 132.851 125.067 134.425 121.185 135.451C117.303 136.476 113.116 136.989 108.624 136.989C104.107 136.989 99.896 136.476 95.9897 135.451C92.0835 134.425 88.6899 132.851 85.8091 130.727C82.9282 128.578 80.6699 125.868 79.0342 122.597C77.3984 119.301 76.5806 115.395 76.5806 110.878C76.5806 107.875 76.959 105.153 77.7158 102.711C78.4727 100.246 79.5347 98.0483 80.9019 96.1196C82.269 94.1665 83.917 92.4819 85.8457 91.0659C87.7988 89.6499 89.9595 88.478 92.3276 87.5503C94.7202 86.5981 97.2837 85.9023 100.018 85.4629C102.752 84.999 105.621 84.7671 108.624 84.7671C113.116 84.7671 117.303 85.2798 121.185 86.3052C125.067 87.3306 128.436 88.9175 131.292 91.0659C134.149 93.1899 136.395 95.8999 138.031 99.1958C139.667 102.467 140.484 106.361 140.484 110.878ZM135.76 110.878C135.76 107.313 135.174 104.164 134.002 101.43C132.855 98.6953 131.146 96.4004 128.875 94.5449C126.605 92.665 123.773 91.249 120.379 90.2969C117.01 89.3203 113.092 88.832 108.624 88.832C104.156 88.832 100.213 89.3203 96.7954 90.2969C93.4019 91.2734 90.5576 92.7017 88.2627 94.5815C85.9678 96.437 84.2344 98.7441 83.0625 101.503C81.8906 104.237 81.3047 107.362 81.3047 110.878C81.3047 114.442 81.8906 117.592 83.0625 120.326C84.2344 123.061 85.9678 125.368 88.2627 127.248C90.5576 129.103 93.4019 130.519 96.7954 131.496C100.213 132.448 104.156 132.924 108.624 132.924C113.092 132.924 117.01 132.448 120.379 131.496C123.773 130.519 126.605 129.103 128.875 127.248C131.146 125.368 132.855 123.061 134.002 120.326C135.174 117.592 135.76 114.442 135.76 110.878ZM240.252 117.616C240.252 120.912 239.483 123.769 237.945 126.186C236.407 128.578 234.283 130.568 231.573 132.155C228.887 133.742 225.701 134.926 222.015 135.707C218.353 136.464 214.385 136.842 210.113 136.842C205.474 136.842 201.214 136.549 197.332 135.963C193.45 135.353 190.057 134.511 187.151 133.437V128.126C188.714 128.786 190.325 129.396 191.985 129.958C193.646 130.519 195.416 131.02 197.295 131.459C199.175 131.874 201.177 132.204 203.301 132.448C205.45 132.667 207.769 132.777 210.259 132.777C213.775 132.777 217.071 132.448 220.147 131.789C223.223 131.105 225.896 130.128 228.167 128.859C230.462 127.565 232.269 125.978 233.587 124.098C234.93 122.218 235.601 120.058 235.601 117.616V108.095C234.429 109.682 232.989 111.208 231.28 112.672C229.595 114.113 227.703 115.395 225.604 116.518C223.528 117.616 221.27 118.507 218.829 119.191C216.387 119.85 213.812 120.18 211.102 120.18C208.025 120.18 205.291 119.899 202.898 119.337C200.53 118.751 198.455 117.958 196.673 116.957C194.915 115.956 193.426 114.772 192.205 113.405C190.984 112.013 189.996 110.512 189.239 108.9C188.506 107.265 187.969 105.556 187.627 103.773C187.31 101.991 187.151 100.185 187.151 98.3535V85.6826H191.802V97.3647C191.802 100.172 192.132 102.724 192.791 105.019C193.475 107.313 194.585 109.279 196.124 110.915C197.662 112.55 199.676 113.82 202.166 114.723C204.681 115.602 207.781 116.042 211.468 116.042C214.324 116.042 216.949 115.663 219.341 114.906C221.734 114.125 223.919 113.087 225.896 111.793C227.874 110.475 229.668 108.961 231.28 107.252C232.891 105.543 234.332 103.749 235.601 101.869V85.6826H240.252V117.616ZM320.971 110.878C320.971 115.395 320.153 119.301 318.517 122.597C316.881 125.868 314.635 128.578 311.779 130.727C308.922 132.851 305.553 134.425 301.671 135.451C297.79 136.476 293.603 136.989 289.11 136.989C284.594 136.989 280.382 136.476 276.476 135.451C272.57 134.425 269.176 132.851 266.295 130.727C263.415 128.578 261.156 125.868 259.521 122.597C257.885 119.301 257.067 115.395 257.067 110.878C257.067 107.875 257.445 105.153 258.202 102.711C258.959 100.246 260.021 98.0483 261.388 96.1196C262.755 94.1665 264.403 92.4819 266.332 91.0659C268.285 89.6499 270.446 88.478 272.814 87.5503C275.207 86.5981 277.77 85.9023 280.504 85.4629C283.239 84.999 286.107 84.7671 289.11 84.7671C293.603 84.7671 297.79 85.2798 301.671 86.3052C305.553 87.3306 308.922 88.9175 311.779 91.0659C314.635 93.1899 316.881 95.8999 318.517 99.1958C320.153 102.467 320.971 106.361 320.971 110.878ZM316.247 110.878C316.247 107.313 315.661 104.164 314.489 101.43C313.341 98.6953 311.632 96.4004 309.362 94.5449C307.091 92.665 304.259 91.249 300.866 90.2969C297.497 89.3203 293.578 88.832 289.11 88.832C284.643 88.832 280.7 89.3203 277.282 90.2969C273.888 91.2734 271.044 92.7017 268.749 94.5815C266.454 96.437 264.721 98.7441 263.549 101.503C262.377 104.237 261.791 107.362 261.791 110.878C261.791 114.442 262.377 117.592 263.549 120.326C264.721 123.061 266.454 125.368 268.749 127.248C271.044 129.103 273.888 130.519 277.282 131.496C280.7 132.448 284.643 132.924 289.11 132.924C293.578 132.924 297.497 132.448 300.866 131.496C304.259 130.519 307.091 129.103 309.362 127.248C311.632 125.368 313.341 123.061 314.489 120.326C315.661 117.592 316.247 114.442 316.247 110.878ZM342.217 85.6826V118.898C342.192 121.706 342.546 124.013 343.279 125.819C344.011 127.626 345.061 129.054 346.428 130.104C347.82 131.129 349.492 131.85 351.445 132.265C353.423 132.655 355.645 132.851 358.11 132.851C360.967 132.851 363.762 132.509 366.497 131.825C369.231 131.117 371.807 130.238 374.224 129.188C376.641 128.114 378.85 126.93 380.852 125.636C382.878 124.342 384.6 123.097 386.016 121.901V85.6826H390.667V136H386.016V127.138C384.307 128.236 382.439 129.384 380.413 130.58C378.386 131.752 376.189 132.838 373.821 133.839C371.477 134.816 368.962 135.622 366.277 136.256C363.591 136.891 360.747 137.208 357.744 137.208C354.351 137.208 351.384 136.781 348.845 135.927C346.331 135.072 344.231 133.876 342.546 132.338C340.886 130.8 339.641 128.981 338.811 126.881C337.981 124.757 337.566 122.426 337.566 119.887V85.6826H342.217ZM448.314 89.5645C447.606 89.3447 446.617 89.1128 445.348 88.8687C444.103 88.6001 442.491 88.4658 440.514 88.4658C437.779 88.4658 435.204 88.8076 432.787 89.4912C430.394 90.1504 428.16 91.0537 426.085 92.2012C424.034 93.3486 422.13 94.6914 420.372 96.2295C418.614 97.7432 417.027 99.3545 415.611 101.063V136H411.034V85.6826H415.611V95.9365C417.247 94.252 419.017 92.7017 420.921 91.2856C422.85 89.8696 424.876 88.6611 427 87.6602C429.125 86.6348 431.346 85.8413 433.666 85.2798C436.009 84.6938 438.426 84.4009 440.917 84.4009C441.771 84.4009 442.54 84.4253 443.224 84.4741C443.907 84.4985 444.53 84.5474 445.091 84.6206C445.677 84.6694 446.227 84.7305 446.739 84.8037C447.252 84.877 447.777 84.9624 448.314 85.0601V89.5645ZM543.357 132.008C541.6 132.741 539.854 133.412 538.121 134.022C536.412 134.633 534.629 135.158 532.774 135.597C530.918 136.037 528.965 136.378 526.915 136.623C524.864 136.867 522.63 136.989 520.213 136.989C517.234 136.989 514.366 136.745 511.607 136.256C508.873 135.768 506.321 135.036 503.953 134.059C501.585 133.083 499.437 131.874 497.508 130.434C495.579 128.969 493.919 127.272 492.527 125.343C491.16 123.415 490.098 121.242 489.341 118.825C488.609 116.408 488.243 113.759 488.243 110.878C488.243 107.997 488.609 105.348 489.341 102.931C490.098 100.514 491.16 98.3413 492.527 96.4126C493.919 94.4839 495.579 92.7993 497.508 91.3589C499.437 89.894 501.585 88.6733 503.953 87.6968C506.321 86.7202 508.873 85.9878 511.607 85.4995C514.341 85.0112 517.21 84.7671 520.213 84.7671C522.63 84.7671 524.864 84.8892 526.915 85.1333C528.965 85.3774 530.918 85.7192 532.774 86.1587C534.629 86.5981 536.412 87.123 538.121 87.7334C539.854 88.3193 541.6 88.9785 543.357 89.7109V95.2041C541.966 94.3252 540.477 93.4951 538.89 92.7139C537.303 91.9326 535.582 91.249 533.726 90.6631C531.895 90.0771 529.93 89.6133 527.83 89.2715C525.73 88.9297 523.484 88.7588 521.092 88.7588C516.258 88.7588 512.071 89.2837 508.531 90.3335C504.991 91.3833 502.061 92.8726 499.742 94.8013C497.447 96.7056 495.738 99.0249 494.615 101.759C493.516 104.469 492.967 107.509 492.967 110.878C492.967 114.247 493.516 117.287 494.615 119.997C495.738 122.707 497.447 125.026 499.742 126.955C502.061 128.859 504.991 130.336 508.531 131.386C512.071 132.411 516.258 132.924 521.092 132.924C523.484 132.924 525.743 132.753 527.867 132.411C530.015 132.069 532.017 131.605 533.873 131.02C535.752 130.434 537.474 129.762 539.036 129.005C540.623 128.224 542.063 127.406 543.357 126.552V132.008ZM609.977 136V111.61H564.896V136H560.319V85.6826H564.896V107.362H609.977V85.6826H614.555V136H609.977ZM680.442 136V130.434C678.684 131.386 676.682 132.265 674.436 133.07C672.214 133.876 669.858 134.572 667.368 135.158C664.902 135.744 662.363 136.195 659.751 136.513C657.139 136.83 654.575 136.989 652.061 136.989C648.789 136.989 645.847 136.696 643.235 136.11C640.647 135.524 638.45 134.657 636.643 133.51C634.836 132.338 633.445 130.897 632.468 129.188C631.492 127.455 631.003 125.453 631.003 123.183C631.003 120.937 631.565 118.959 632.688 117.25C633.835 115.517 635.459 114.015 637.559 112.746C639.658 111.452 642.185 110.365 645.139 109.486C648.118 108.583 651.438 107.826 655.1 107.216C658.762 106.581 662.717 106.068 666.965 105.678C671.238 105.263 675.73 104.921 680.442 104.652V100.807C680.442 99.2446 680.149 97.8652 679.563 96.6689C678.977 95.4727 678.159 94.4351 677.109 93.5562C676.06 92.6528 674.827 91.9082 673.411 91.3223C671.995 90.7119 670.457 90.2236 668.796 89.8574C667.161 89.4912 665.427 89.2349 663.596 89.0884C661.79 88.9175 659.971 88.832 658.14 88.832C655.674 88.832 653.428 88.9541 651.401 89.1982C649.375 89.4424 647.483 89.7842 645.725 90.2236C643.967 90.6387 642.283 91.127 640.671 91.6885C639.06 92.25 637.437 92.8481 635.801 93.4829V88.1362C639.194 87.2329 642.808 86.4517 646.641 85.7925C650.498 85.1089 654.587 84.7671 658.909 84.7671C662.571 84.7671 665.989 85.0845 669.163 85.7192C672.336 86.3296 675.095 87.3184 677.439 88.6855C679.783 90.0527 681.626 91.8228 682.969 93.9956C684.312 96.144 684.983 98.7686 684.983 101.869V136H680.442ZM680.442 108.717C672.458 109.157 665.635 109.779 659.971 110.585C654.331 111.391 649.717 112.379 646.128 113.551C642.539 114.723 639.902 116.09 638.218 117.653C636.558 119.215 635.728 120.985 635.728 122.963C635.728 124.574 636.13 126.002 636.936 127.248C637.766 128.493 638.95 129.542 640.488 130.397C642.026 131.227 643.894 131.862 646.091 132.301C648.289 132.716 650.754 132.924 653.489 132.924C655.1 132.924 656.76 132.838 658.469 132.667C660.203 132.472 661.924 132.216 663.633 131.898C665.342 131.557 667.026 131.166 668.687 130.727C670.347 130.263 671.909 129.762 673.374 129.225C674.839 128.688 676.169 128.114 677.366 127.504C678.586 126.894 679.612 126.271 680.442 125.636V108.717ZM742.191 89.5645C741.483 89.3447 740.494 89.1128 739.225 88.8687C737.979 88.6001 736.368 88.4658 734.391 88.4658C731.656 88.4658 729.081 88.8076 726.664 89.4912C724.271 90.1504 722.037 91.0537 719.962 92.2012C717.911 93.3486 716.007 94.6914 714.249 96.2295C712.491 97.7432 710.904 99.3545 709.488 101.063V136H704.911V85.6826H709.488V95.9365C711.124 94.252 712.894 92.7017 714.798 91.2856C716.727 89.8696 718.753 88.6611 720.877 87.6602C723.001 86.6348 725.223 85.8413 727.542 85.2798C729.886 84.6938 732.303 84.4009 734.793 84.4009C735.648 84.4009 736.417 84.4253 737.101 84.4741C737.784 84.4985 738.407 84.5474 738.968 84.6206C739.554 84.6694 740.104 84.7305 740.616 84.8037C741.129 84.877 741.654 84.9624 742.191 85.0601V89.5645ZM774.46 89.8574V136H769.919V89.8574H747.031V85.6826H797.348V89.8574H774.46Z" fill="black"/>
<defs>
<radialGradient id="paint0_radial_33_43" cx="0" cy="0" r="1" gradientUnits="userSpaceOnUse" gradientTransform="translate(981.916 134.152) rotate(90) scale(95 100.5)">
<stop stop-color="#DCA27C"/>
<stop offset="1" stop-color="#D79467"/>
</radialGradient>
</defs>
</svg>
