<svg width="973" height="572" viewBox="0 0 973 572" fill="none" xmlns="http://www.w3.org/2000/svg">
<path d="M232.203 407.708L199.345 375.326C198.59 374.582 198.547 373.378 199.247 372.581L211.115 359.077C211.869 358.218 213.187 358.165 214.008 358.96L258.859 402.379C259.267 402.774 259.488 403.324 259.466 403.892L257.355 459.618C257.274 461.775 254.305 462.291 253.501 460.288L232.655 408.387C232.553 408.132 232.399 407.9 232.203 407.708Z" fill="#463F99"/>
<path d="M355.297 408.208L388.155 375.826C388.91 375.082 388.953 373.878 388.253 373.081L376.385 359.577C375.631 358.718 374.313 358.665 373.492 359.46L328.641 402.879C328.233 403.274 328.012 403.824 328.034 404.392L330.145 460.118C330.226 462.275 333.195 462.791 333.999 460.788L354.845 408.887C354.947 408.632 355.101 408.4 355.297 408.208Z" fill="#169D97"/>
<path d="M31.5 280L99.5 284" stroke="black" stroke-width="5"/>
<path d="M38 198.5L20 269V280L84 284L114 292.5L158 327L164.5 322.5L185.5 316.5L204.5 327L256.5 292.5V280L264 255.5L285 238.5C301.34 240.645 309.083 244.63 319 259.5L325 284L381 327L405.5 316.5L433 327L474.5 296L499.5 269L566.5 205L511.5 131.5L398 90L289 29.5L196.5 84.5H93L84 96.5L58.5 153.5L38 198.5Z" stroke="#3F99D0" stroke-width="5"/>
<path d="M67.5 179.5L147.5 192" stroke="#3F99D0" stroke-width="5"/>
<path d="M97.5 88L153 181" stroke="#3F99D0" stroke-width="5"/>
<path d="M197.5 98.5L172.5 175.5" stroke="#3F99D0" stroke-width="5"/>
<path d="M280 150L198 189.5" stroke="#3F99D0" stroke-width="5"/>
<path d="M291.5 49V130" stroke="#3F99D0" stroke-width="5"/>
<path d="M218 87.5L283 135.5" stroke="#3F99D0" stroke-width="5"/>
<path d="M384.5 100L307.5 143.5" stroke="#3F99D0" stroke-width="5"/>
<path d="M394 114L383 196.5" stroke="#3F99D0" stroke-width="5"/>
<path d="M500.5 143L399.5 208" stroke="#3F99D0" stroke-width="5"/>
<path d="M304.5 153L371.5 203" stroke="#3F99D0" stroke-width="5"/>
<path d="M401.5 224L465.5 260.5" stroke="#3F99D0" stroke-width="5"/>
<path d="M508 150.5L495 249.5" stroke="#3F99D0" stroke-width="5"/>
<path d="M195 214.5L262 254.5" stroke="#3F99D0" stroke-width="5"/>
<path d="M154.5 221.5L114 268.5" stroke="#3F99D0" stroke-width="5"/>
<path d="M369 227L327.5 257.5" stroke="#3F99D0" stroke-width="5"/>
<circle cx="386.5" cy="213.5" r="31.5" fill="#433C97"/>
<circle cx="289.5" cy="31.5" r="31.5" fill="#DB8A28"/>
<circle cx="198.5" cy="81.5" r="31.5" fill="#66BC45"/>
<circle cx="49.5" cy="174.5" r="39.5" fill="#66BC45"/>
<circle cx="171.5" cy="199.5" r="39.5" fill="#169D97"/>
<circle cx="19" cy="273" r="19" fill="#17A29C"/>
<circle cx="89" cy="82" r="25" fill="#D5C549"/>
<circle cx="102" cy="284" r="25" fill="#0A79C1"/>
<circle cx="293" cy="142" r="25" fill="#0A77BD"/>
<circle cx="511" cy="132" r="25" fill="#D61C8F"/>
<circle cx="402" cy="91" r="36" fill="#DC3226"/>
<circle cx="496.5" cy="275.5" r="39.5" fill="#0A77BD"/>
<circle cx="567.5" cy="206.5" r="17.5" fill="#453E98"/>
<circle cx="407" cy="344" r="27" stroke="#169E98" stroke-width="16"/>
<circle cx="182" cy="344" r="27" stroke="#463F99" stroke-width="16"/>
<circle cx="292" cy="276" r="35" stroke="#117EC3" stroke-width="16"/>
<rect x="280" y="309" width="25" height="225" rx="9" fill="#117EC3"/>
<path d="M334.5 556.501L380.5 431.001C405.875 431.782 446.784 428.455 460 431.001C473.216 433.547 501.222 461.834 479 504.501C460.323 540.36 420 554.334 401.5 556.501H334.5Z" stroke="#D7AD7D" stroke-width="29"/>
<path d="M248.795 557.477L202.795 431.977C177.42 432.758 136.511 429.431 123.295 431.977C110.08 434.522 82.073 462.809 104.295 505.477C122.972 541.336 163.295 555.31 181.795 557.477H248.795Z" stroke="white" stroke-width="29"/>
<path d="M543 416V499.019C544.667 519.228 559.3 559.098 604.5 556.914C649.7 554.729 666.333 522.505 669 506.665V416" stroke="#D7AD7D" stroke-width="29"/>
<path d="M699 565L758.702 452L821 565" stroke="#D7AD7D" stroke-width="29"/>
<path d="M859.212 416V521.24C857.794 532.337 862.83 554.423 894.326 553.994C925.821 553.564 959.232 553.815 972 553.994" stroke="#D7AD7D" stroke-width="29"/>
<path d="M686 558H712V572H678.5L686 558Z" fill="#D7AD7D"/>
<path d="M833.612 557H808V572H841L833.612 557Z" fill="#D7AD7D"/>
</svg>
