<svg width="320" height="245" viewBox="0 0 320 245" fill="none" xmlns="http://www.w3.org/2000/svg">
<path fill-rule="evenodd" clip-rule="evenodd" d="M58.416 39.1523H115.416V79.1523H58.416V39.1523ZM58.416 89.1523H115.416V129.152H58.416V89.1523ZM115.416 139.152H58.416V179.152H115.416V139.152ZM58.416 189.152H115.416V229.152H58.416V189.152ZM187.416 39.1523H130.416V79.1523H187.416V39.1523ZM130.416 89.1523H187.416V129.152H130.416V89.1523ZM187.416 139.152H130.416V179.152H187.416V139.152ZM130.416 189.152H187.416L172.416 203.652L130.416 229.152V189.152ZM259.416 39.1523H202.416V79.1523H259.416V39.1523ZM202.416 89.1523H259.416V129.152H202.416V89.1523ZM259.416 139.152H202.416V179.152L238.416 158.652L259.416 139.152Z" fill="url(#paint0_radial_75_15)"/>
<path d="M32.4165 225.152C-5.58353 209.952 8.24981 164.319 20.9165 144.152C-21.0833 205.352 9.74991 232.652 30.4165 238.652C83.6167 261.852 175.916 212.319 215.416 184.652C343.016 90.6523 327.583 29.4855 303.916 10.652C280.716 -11.748 210.916 6.31883 178.916 18.1522C244.116 -4.64777 279.416 8.65223 288.916 18.1522C319.916 56.1522 283.916 113.652 198.416 176.652C133.1 224.78 61.7497 232.819 32.4165 225.152Z" fill="#454545"/>
<defs>
<radialGradient id="paint0_radial_75_15" cx="0" cy="0" r="1" gradientUnits="userSpaceOnUse" gradientTransform="translate(158.916 134.152) rotate(90) scale(95 100.5)">
<stop stop-color="#0890E6"/>
<stop offset="1" stop-color="#15599D"/>
</radialGradient>
</defs>
</svg>
