<svg width="3796" height="463" viewBox="0 0 3796 463" fill="none" xmlns="http://www.w3.org/2000/svg">
<path d="M2081.5 352C2056.3 445.6 1964.67 453.667 1922 446C2028.4 484 2105 409.833 2130 368L2159 380L2130 285.5L2045 336.5L2081.5 352Z" fill="#C0C0C0"/>
<path d="M1936.73 163.983C2028.62 133.118 2086.09 204.942 2103.34 244.712C2076.04 135.077 1971.86 112.383 1923.18 114.741L1917.11 83.9489L1854.5 160.438L1944.04 202.958L1936.73 163.983Z" fill="#C0C0C0"/>
<path d="M1850.71 377.944C1780.1 311.541 1816.25 226.954 1843.15 192.961C1759.42 268.817 1788.64 371.358 1813.71 413.146L1789.44 433.045L1886.44 452.094L1881.61 353.085L1850.71 377.944Z" fill="#C0C0C0"/>
<path d="M0.5 256H1384C1456.67 266.333 1622.4 262.8 1704 166C1806 44.9996 1958.5 -107 2169.5 135C2200.89 171 2282.2 279.3 2467 276.5C2651.8 273.7 3429.67 268.333 3795.5 266M2081.5 352C2056.3 445.6 1964.67 453.667 1922 446C2028.4 484 2105 409.833 2130 368L2159 380L2130 285.5L2045 336.5L2081.5 352ZM1936.73 163.983C2028.62 133.118 2086.09 204.942 2103.34 244.712C2076.04 135.077 1971.86 112.383 1923.18 114.741L1917.11 83.9489L1854.5 160.438L1944.04 202.958L1936.73 163.983ZM1850.71 377.944C1780.1 311.541 1816.25 226.954 1843.15 192.961C1759.42 268.817 1788.64 371.358 1813.71 413.146L1789.44 433.045L1886.44 452.094L1881.61 353.085L1850.71 377.944Z" stroke="#C0C0C0" stroke-width="12"/>
</svg>
